<svg xmlns="http://www.w3.org/2000/svg" xmlns:xlink="http://www.w3.org/1999/xlink" width="1080" zoomAndPan="magnify" viewBox="0 0 810 1012.49997" height="1350" preserveAspectRatio="xMidYMid meet" version="1.0"><defs><g/><clipPath id="91fc1033a6"><path d="M 8.183594 142.742188 L 801.816406 142.742188 L 801.816406 942 L 8.183594 942 Z M 8.183594 142.742188 " clip-rule="nonzero"/></clipPath><clipPath id="b6131b3bfa"><path d="M 405 142.742188 C 185.84375 142.742188 8.183594 321.574219 8.183594 542.175781 C 8.183594 762.777344 185.84375 941.613281 405 941.613281 C 624.15625 941.613281 801.816406 762.777344 801.816406 542.175781 C 801.816406 321.574219 624.15625 142.742188 405 142.742188 Z M 405 142.742188 " clip-rule="nonzero"/></clipPath></defs><g clip-path="url(#91fc1033a6)"><g clip-path="url(#b6131b3bfa)"><path fill="#247552" d="M 8.183594 142.742188 L 801.816406 142.742188 L 801.816406 942.574219 L 8.183594 942.574219 Z M 8.183594 142.742188 " fill-opacity="1" fill-rule="nonzero"/></g></g><g fill="#ffffff" fill-opacity="1"><g transform="translate(102.383978, 821.735861)"><g><path d="M 436.421875 -283.359375 L 552.578125 -283.359375 L 552.578125 -60.4375 C 522.753906 -37.9375 488.21875 -20.664062 448.96875 -8.625 C 409.726562 3.40625 370.222656 9.421875 330.453125 9.421875 C 273.410156 9.421875 222.125 -2.742188 176.59375 -27.078125 C 131.070312 -51.410156 95.359375 -85.160156 69.453125 -128.328125 C 43.554688 -171.503906 30.609375 -220.300781 30.609375 -274.71875 C 30.609375 -329.144531 43.554688 -377.941406 69.453125 -421.109375 C 95.359375 -464.273438 131.335938 -498.023438 177.390625 -522.359375 C 223.441406 -546.691406 275.25 -558.859375 332.8125 -558.859375 C 380.945312 -558.859375 424.640625 -550.75 463.890625 -534.53125 C 503.140625 -518.3125 536.101562 -494.765625 562.78125 -463.890625 L 481.15625 -388.53125 C 441.90625 -429.875 394.550781 -450.546875 339.09375 -450.546875 C 304.03125 -450.546875 272.890625 -443.21875 245.671875 -428.5625 C 218.460938 -413.914062 197.269531 -393.25 182.09375 -366.5625 C 166.925781 -339.875 159.34375 -309.257812 159.34375 -274.71875 C 159.34375 -240.707031 166.925781 -210.359375 182.09375 -183.671875 C 197.269531 -156.984375 218.332031 -136.179688 245.28125 -121.265625 C 272.238281 -106.359375 302.984375 -98.90625 337.515625 -98.90625 C 374.148438 -98.90625 407.117188 -106.753906 436.421875 -122.453125 Z M 436.421875 -283.359375 "/></g></g></g></svg>